<?xml version="1.0" encoding="UTF-8"?>
<svg id="Capa_1" data-name="Capa 1" xmlns="http://www.w3.org/2000/svg" viewBox="0 0 1591.74 1080">
  <defs>
    <style>
      .cls-1 {
        fill: #d8bb7c;
      }
    </style>
  </defs>
  <g>
    <path class="cls-1" d="M275.62,506.45c-14.96,0-26.97,4.48-36.03,13.43-9.06,8.96-13.59,20.92-13.59,35.89v118.01h-47.47v-118.01c0-14.09,2.44-27.15,7.34-39.19,4.89-12.03,11.65-22.38,20.28-31.05,8.63-8.66,18.84-15.41,30.64-20.26,11.79-4.84,24.74-7.27,38.84-7.27s27.04,2.42,38.84,7.27c11.79,4.84,22.01,11.6,30.64,20.26,8.63,8.66,15.32,19.01,20.07,31.05,4.75,12.04,7.12,25.1,7.12,39.19v118.01h-47.47v-118.01c0-14.97-4.46-26.93-13.38-35.89-8.92-8.95-20.86-13.43-35.82-13.43Z"/>
    <path class="cls-1" d="M509.95,673.78c-14.67,0-28.48-2.74-41.43-8.2-12.95-5.46-24.17-12.95-33.66-22.44-9.49-9.49-16.98-20.71-22.44-33.66-5.47-12.95-8.2-26.76-8.2-41.43s2.73-28.84,8.2-41.64c5.46-12.8,12.95-23.95,22.44-33.44,9.49-9.49,20.71-16.97,33.66-22.44,12.95-5.46,26.76-8.2,41.43-8.2h105.73v134.64c0,9.21,2.66,16.4,7.98,21.58,5.32,5.18,12.73,7.77,22.22,7.77v47.47c-13.24,0-25.25-2.59-36.03-7.77-10.79-5.18-19.49-12.37-26.11-21.58-9.49,9.21-20.5,16.4-33.01,21.58-12.52,5.18-26.11,7.77-40.78,7.77ZM568.21,509.79h-58.26c-8.06,0-15.61,1.51-22.66,4.53-7.05,3.02-13.24,7.12-18.56,12.3-5.33,5.18-9.49,11.29-12.51,18.34-3.02,7.05-4.53,14.75-4.53,23.09s1.51,15.68,4.53,22.87c3.02,7.19,7.19,13.38,12.51,18.56,5.32,5.18,11.5,9.28,18.56,12.3,7.05,3.02,14.6,4.53,22.66,4.53s16.03-1.51,23.09-4.53c7.05-3.02,13.16-7.12,18.34-12.3,5.18-5.18,9.28-11.36,12.3-18.56,3.02-7.19,4.53-14.81,4.53-22.87v-58.26Z"/>
    <path class="cls-1" d="M720.98,509.79v69.05c0,15.54,4.24,27.34,12.73,35.39,8.48,8.06,20.78,12.08,36.9,12.08v47.47c-14.67,0-27.98-2.31-39.92-6.9-11.94-4.6-22.16-11-30.64-19.2-8.49-8.2-15.04-18.19-19.64-29.99-4.61-11.79-6.9-24.74-6.9-38.84v-172.62h47.47v56.1h49.63v47.47h-49.63Z"/>
    <path class="cls-1" d="M802.54,462.32h47.47v211.46h-47.47v-211.46Z"/>
    <path class="cls-1" d="M925.1,462.32l59.55,145.38,59.55-145.38h51.79l-90.19,211.46h-42.29l-90.19-211.46h51.79Z"/>
    <path class="cls-1" d="M1201.29,673.78c-14.67,0-28.48-2.74-41.43-8.2-12.95-5.46-24.17-12.95-33.66-22.44-9.49-9.49-16.98-20.71-22.44-33.66-5.47-12.95-8.2-26.76-8.2-41.43s2.73-28.84,8.2-41.64c5.46-12.8,12.95-23.95,22.44-33.44,9.49-9.49,20.71-16.97,33.66-22.44,12.95-5.46,26.76-8.2,41.43-8.2h105.73v134.64c0,9.21,2.66,16.4,7.98,21.58,5.32,5.18,12.73,7.77,22.22,7.77v47.47c-13.24,0-25.25-2.59-36.03-7.77-10.79-5.18-19.49-12.37-26.11-21.58-9.49,9.21-20.5,16.4-33.01,21.58-12.52,5.18-26.11,7.77-40.78,7.77ZM1259.55,509.79h-58.26c-8.06,0-15.61,1.51-22.66,4.53-7.05,3.02-13.24,7.12-18.56,12.3-5.33,5.18-9.49,11.29-12.51,18.34-3.02,7.05-4.53,14.75-4.53,23.09s1.51,15.68,4.53,22.87c3.02,7.19,7.19,13.38,12.51,18.56,5.32,5.18,11.5,9.28,18.56,12.3,7.05,3.02,14.6,4.53,22.66,4.53s16.03-1.51,23.09-4.53c7.05-3.02,13.16-7.12,18.34-12.3,5.18-5.18,9.28-11.36,12.3-18.56,3.02-7.19,4.53-14.81,4.53-22.87v-58.26Z"/>
  </g>
  <path class="cls-1" d="M1374.92,406.22c-5.32,0-10.32.99-15.01,2.97-4.69,1.98-8.75,4.69-12.19,8.13-.42.42-.82.84-1.22,1.28-.02.02-.03.04-.05.06-2.84,3.14-5.13,6.73-6.86,10.78-1.72,4.04-2.69,8.37-2.92,12.99,0,.03,0,.05,0,.08-.03.66-.05,1.33-.05,2.01,0,5.25.97,10.19,2.9,14.83.03.06.05.12.07.18.49,1.17,1.03,2.3,1.61,3.39.03.05.06.1.08.15,1.75,3.23,3.89,6.11,6.43,8.66,2.54,2.54,5.43,4.69,8.66,6.43.05.03.1.06.15.08,1.09.58,2.22,1.12,3.39,1.62.06.03.12.05.18.07,4.64,1.93,9.58,2.9,14.83,2.9.68,0,1.35-.02,2.01-.05.03,0,.05,0,.08,0,4.63-.22,8.96-1.2,12.99-2.92,4.05-1.73,7.64-4.02,10.78-6.86.02-.02.04-.03.06-.05.44-.4.86-.8,1.28-1.22,3.44-3.44,6.15-7.5,8.13-12.19,1.98-4.69,2.97-9.69,2.97-15.01v-38.3h-38.3ZM1392.64,461.58h-1.79c-2.24,0-4.32-.4-6.24-1.21-1.93-.81-3.6-1.92-5.03-3.36-1.43-1.43-2.56-3.11-3.39-5.03-.83-1.92-1.25-3.98-1.25-6.16v-1.95h3.98c1.82,0,3.24-.44,4.25-1.33,1.01-.88,1.52-2.11,1.52-3.67s-.51-2.78-1.52-3.67c-1.01-.88-2.43-1.33-4.25-1.33h-7.02v27.7h-7.02v-33.94h14.04c4,0,7.14,1,9.4,3.01,2.26,2,3.39,4.75,3.39,8.23,0,2.97-.85,5.37-2.54,7.22-1.69,1.85-4.07,3.03-7.14,3.55.78,1.77,1.99,3.16,3.63,4.17,1.64,1.01,3.55,1.52,5.74,1.52h1.25v6.24Z"/>
</svg>